# xmcd
#
# Track frame offsets: 
#        182
#        12512
#        24412
#        35375
#        45782
#        57895
#        69462
#        80877
#        90932
#        102825
#        115845
#        127662
#        138812
#        150005
#        160245
#        169940
#        180102
#        192565
#        202800
#        214377
#        227250
#
# Disc length: 3179 seconds
#
# Revision: 0
# Processed by: cddbd v1.5.1PL0 Copyright (c) Steve Scherf et al.
# Submitted via: ExactAudioCopy v0.95b2
#
DISCID=f60c6915
DTITLE=Various Artist - Got My Mojo Working
DYEAR=1900
DGENRE=Blues
TTITLE0=Ann Cole - Got My Mojo Working
TTITLE1=Ann Cole - Easy Easy Baby
TTITLE2=Noble Watts - Blast Off
TTITLE3=Noble Watts - Easy Going-Pt.1
TTITLE4=Big Mike Gordon - Walkin' Slippin' and Slidin'
TTITLE5=Big Mike Gordon - You Don't Want Me No More
TTITLE6=Noble Watts - Flap Jack
TTITLE7=Noble Watts - The Creep
TTITLE8=Chris Kenner - Grandma's House
TTITLE9=Chris Kenner - Don't Let Her Pin That Charge On Me
TTITLE10=Frankie Tucker - Hey Hester
TTITLE11=Ann Cole - Each Day
TTITLE12=Ann Cole - I'm Waiting For You
TTITLE13=Noble Watts - Shakin'
TTITLE14=Noble Watts - Easy Going Pt.2
TTITLE15=Marie Knight - I Thought I Told You Not To Tell Them
TTITLE16=Ann Cole - Darling Don't Hurt Me
TTITLE17=Big Mike Gordon - Careless Lover
TTITLE18=Milan Brown - Roll It
TTITLE19=Milan Brown - I'm Going Back
TTITLE20=Noble Watts - Great Times
EXTD=
EXTT0=
EXTT1=
EXTT2=
EXTT3=
EXTT4=
EXTT5=
EXTT6=
EXTT7=
EXTT8=
EXTT9=
EXTT10=
EXTT11=
EXTT12=
EXTT13=
EXTT14=
EXTT15=
EXTT16=
EXTT17=
EXTT18=
EXTT19=
EXTT20=
PLAYORDER=
